<mxfile host="Electron" modified="2024-05-23T22:47:10.580Z" agent="Mozilla/5.0 (Windows NT 10.0; Win64; x64) AppleWebKit/537.36 (KHTML, like Gecko) draw.io/24.4.0 Chrome/120.0.6099.109 Electron/28.1.0 Safari/537.36" etag="IcUCYkqQGyr4MTXSQ99c" version="24.4.0" type="device">
  <diagram name="ページ1" id="MkQGCv9_dEXx3JhJKAsj">
    <mxGraphModel dx="3370" dy="2211" grid="1" gridSize="10" guides="1" tooltips="1" connect="1" arrows="1" fold="1" page="1" pageScale="1" pageWidth="2336" pageHeight="1654" math="0" shadow="0">
      <root>
        <mxCell id="0" />
        <mxCell id="1" parent="0" />
        <mxCell id="bUyuKT2G7bqXVr3a8qLy-1" value="&lt;font style=&quot;font-size: 18px;&quot;&gt;全体の量子化ステップ幅を増加&lt;/font&gt;" style="rounded=1;whiteSpace=wrap;html=1;absoluteArcSize=1;arcSize=14;strokeWidth=2;" parent="1" vertex="1">
          <mxGeometry x="440" y="130" width="200" height="80" as="geometry" />
        </mxCell>
        <mxCell id="bUyuKT2G7bqXVr3a8qLy-2" value="&lt;font style=&quot;font-size: 18px;&quot;&gt;非線形量子化&lt;/font&gt;" style="rounded=1;whiteSpace=wrap;html=1;absoluteArcSize=1;arcSize=14;strokeWidth=2;" parent="1" vertex="1">
          <mxGeometry x="440" y="240" width="200" height="80" as="geometry" />
        </mxCell>
        <mxCell id="bUyuKT2G7bqXVr3a8qLy-3" value="&lt;font style=&quot;font-size: 18px;&quot;&gt;最大の量子化値が&lt;br&gt;量子化テーブルの範囲内？&lt;/font&gt;" style="strokeWidth=2;html=1;shape=mxgraph.flowchart.decision;whiteSpace=wrap;" parent="1" vertex="1">
          <mxGeometry x="420" y="350" width="240" height="110" as="geometry" />
        </mxCell>
        <mxCell id="bUyuKT2G7bqXVr3a8qLy-4" value="" style="endArrow=classic;html=1;rounded=0;entryX=0.5;entryY=0;entryDx=0;entryDy=0;exitX=0.5;exitY=1;exitDx=0;exitDy=0;" parent="1" source="bUyuKT2G7bqXVr3a8qLy-1" target="bUyuKT2G7bqXVr3a8qLy-2" edge="1">
          <mxGeometry width="50" height="50" relative="1" as="geometry">
            <mxPoint x="500" y="320" as="sourcePoint" />
            <mxPoint x="550" y="270" as="targetPoint" />
          </mxGeometry>
        </mxCell>
        <mxCell id="bUyuKT2G7bqXVr3a8qLy-5" value="" style="endArrow=classic;html=1;rounded=0;exitX=0.5;exitY=1;exitDx=0;exitDy=0;" parent="1" source="bUyuKT2G7bqXVr3a8qLy-2" target="bUyuKT2G7bqXVr3a8qLy-3" edge="1">
          <mxGeometry width="50" height="50" relative="1" as="geometry">
            <mxPoint x="550" y="210" as="sourcePoint" />
            <mxPoint x="550" y="250" as="targetPoint" />
          </mxGeometry>
        </mxCell>
        <mxCell id="bUyuKT2G7bqXVr3a8qLy-6" value="&lt;font style=&quot;font-size: 18px;&quot;&gt;内部ループ&lt;/font&gt;&lt;div&gt;&lt;font size=&quot;3&quot;&gt;(inner_loop)&lt;/font&gt;&lt;/div&gt;" style="strokeWidth=2;html=1;shape=mxgraph.flowchart.terminator;whiteSpace=wrap;" parent="1" vertex="1">
          <mxGeometry x="440" width="200" height="60" as="geometry" />
        </mxCell>
        <mxCell id="bUyuKT2G7bqXVr3a8qLy-7" value="" style="endArrow=classic;html=1;rounded=0;exitX=0.5;exitY=1;exitDx=0;exitDy=0;exitPerimeter=0;entryX=0.5;entryY=0;entryDx=0;entryDy=0;" parent="1" source="bUyuKT2G7bqXVr3a8qLy-6" target="bUyuKT2G7bqXVr3a8qLy-1" edge="1">
          <mxGeometry width="50" height="50" relative="1" as="geometry">
            <mxPoint x="550" y="210" as="sourcePoint" />
            <mxPoint x="540" y="110" as="targetPoint" />
          </mxGeometry>
        </mxCell>
        <mxCell id="bUyuKT2G7bqXVr3a8qLy-8" value="" style="endArrow=classic;html=1;rounded=0;exitX=1;exitY=0.5;exitDx=0;exitDy=0;exitPerimeter=0;" parent="1" source="bUyuKT2G7bqXVr3a8qLy-3" edge="1">
          <mxGeometry width="50" height="50" relative="1" as="geometry">
            <mxPoint x="680" y="450" as="sourcePoint" />
            <mxPoint x="540" y="100" as="targetPoint" />
            <Array as="points">
              <mxPoint x="700" y="405" />
              <mxPoint x="700" y="100" />
              <mxPoint x="610" y="100" />
            </Array>
          </mxGeometry>
        </mxCell>
        <mxCell id="CVru5InHoEOOZYgeoWNS-1" value="&lt;font style=&quot;font-size: 14px;&quot;&gt;No&lt;/font&gt;" style="edgeLabel;html=1;align=center;verticalAlign=middle;resizable=0;points=[];" vertex="1" connectable="0" parent="bUyuKT2G7bqXVr3a8qLy-8">
          <mxGeometry x="-0.9594" relative="1" as="geometry">
            <mxPoint y="-10" as="offset" />
          </mxGeometry>
        </mxCell>
        <mxCell id="bUyuKT2G7bqXVr3a8qLy-9" value="&lt;font style=&quot;font-size: 18px;&quot;&gt;ハフマン符号化後の&lt;/font&gt;&lt;div&gt;&lt;font size=&quot;3&quot;&gt;符号長計算&lt;/font&gt;&lt;/div&gt;" style="rounded=1;whiteSpace=wrap;html=1;absoluteArcSize=1;arcSize=14;strokeWidth=2;" parent="1" vertex="1">
          <mxGeometry x="440" y="490" width="200" height="80" as="geometry" />
        </mxCell>
        <mxCell id="bUyuKT2G7bqXVr3a8qLy-10" value="&lt;font style=&quot;font-size: 18px;&quot;&gt;符号長が&lt;br&gt;使用可能ビット数以下？&lt;/font&gt;" style="strokeWidth=2;html=1;shape=mxgraph.flowchart.decision;whiteSpace=wrap;" parent="1" vertex="1">
          <mxGeometry x="420" y="600" width="240" height="100" as="geometry" />
        </mxCell>
        <mxCell id="bUyuKT2G7bqXVr3a8qLy-11" value="" style="endArrow=classic;html=1;rounded=0;exitX=1;exitY=0.5;exitDx=0;exitDy=0;exitPerimeter=0;" parent="1" source="bUyuKT2G7bqXVr3a8qLy-10" edge="1">
          <mxGeometry width="50" height="50" relative="1" as="geometry">
            <mxPoint x="690" y="730" as="sourcePoint" />
            <mxPoint x="540" y="80" as="targetPoint" />
            <Array as="points">
              <mxPoint x="720" y="650" />
              <mxPoint x="720" y="420" />
              <mxPoint x="720" y="80" />
              <mxPoint x="620" y="80" />
            </Array>
          </mxGeometry>
        </mxCell>
        <mxCell id="CVru5InHoEOOZYgeoWNS-2" value="&lt;font style=&quot;font-size: 14px;&quot;&gt;No&lt;/font&gt;" style="edgeLabel;html=1;align=center;verticalAlign=middle;resizable=0;points=[];" vertex="1" connectable="0" parent="bUyuKT2G7bqXVr3a8qLy-11">
          <mxGeometry x="-0.9523" y="2" relative="1" as="geometry">
            <mxPoint x="-9" y="-8" as="offset" />
          </mxGeometry>
        </mxCell>
        <mxCell id="bUyuKT2G7bqXVr3a8qLy-12" value="" style="endArrow=classic;html=1;rounded=0;entryX=0.5;entryY=0;entryDx=0;entryDy=0;" parent="1" target="bUyuKT2G7bqXVr3a8qLy-9" edge="1">
          <mxGeometry width="50" height="50" relative="1" as="geometry">
            <mxPoint x="540" y="460" as="sourcePoint" />
            <mxPoint x="550" y="370" as="targetPoint" />
          </mxGeometry>
        </mxCell>
        <mxCell id="CVru5InHoEOOZYgeoWNS-13" value="&lt;font style=&quot;font-size: 14px;&quot;&gt;Yes&lt;/font&gt;" style="edgeLabel;html=1;align=center;verticalAlign=middle;resizable=0;points=[];" vertex="1" connectable="0" parent="bUyuKT2G7bqXVr3a8qLy-12">
          <mxGeometry x="-0.3333" y="-2" relative="1" as="geometry">
            <mxPoint x="22" as="offset" />
          </mxGeometry>
        </mxCell>
        <mxCell id="bUyuKT2G7bqXVr3a8qLy-13" value="" style="endArrow=classic;html=1;rounded=0;entryX=0.5;entryY=0;entryDx=0;entryDy=0;entryPerimeter=0;exitX=0.5;exitY=1;exitDx=0;exitDy=0;" parent="1" source="bUyuKT2G7bqXVr3a8qLy-9" target="bUyuKT2G7bqXVr3a8qLy-10" edge="1">
          <mxGeometry width="50" height="50" relative="1" as="geometry">
            <mxPoint x="540" y="590" as="sourcePoint" />
            <mxPoint x="550" y="520" as="targetPoint" />
          </mxGeometry>
        </mxCell>
        <mxCell id="bUyuKT2G7bqXVr3a8qLy-14" value="&lt;font style=&quot;font-size: 18px;&quot;&gt;終了&lt;/font&gt;" style="strokeWidth=2;html=1;shape=mxgraph.flowchart.terminator;whiteSpace=wrap;" parent="1" vertex="1">
          <mxGeometry x="440" y="750" width="200" height="60" as="geometry" />
        </mxCell>
        <mxCell id="bUyuKT2G7bqXVr3a8qLy-15" value="" style="endArrow=classic;html=1;rounded=0;entryX=0.5;entryY=0;entryDx=0;entryDy=0;entryPerimeter=0;" parent="1" target="bUyuKT2G7bqXVr3a8qLy-14" edge="1">
          <mxGeometry width="50" height="50" relative="1" as="geometry">
            <mxPoint x="540" y="700" as="sourcePoint" />
            <mxPoint x="550" y="610" as="targetPoint" />
          </mxGeometry>
        </mxCell>
        <mxCell id="CVru5InHoEOOZYgeoWNS-11" value="&lt;font style=&quot;font-size: 14px;&quot;&gt;Yes&lt;/font&gt;" style="edgeLabel;html=1;align=center;verticalAlign=middle;resizable=0;points=[];" vertex="1" connectable="0" parent="bUyuKT2G7bqXVr3a8qLy-15">
          <mxGeometry x="-0.12" y="-1" relative="1" as="geometry">
            <mxPoint x="21" y="-12" as="offset" />
          </mxGeometry>
        </mxCell>
        <mxCell id="bUyuKT2G7bqXVr3a8qLy-16" value="&lt;font style=&quot;font-size: 18px;&quot;&gt;外部ループ&lt;/font&gt;&lt;div&gt;&lt;font size=&quot;3&quot;&gt;(outer_loop)&lt;/font&gt;&lt;/div&gt;" style="strokeWidth=2;html=1;shape=mxgraph.flowchart.terminator;whiteSpace=wrap;" parent="1" vertex="1">
          <mxGeometry x="80" width="200" height="60" as="geometry" />
        </mxCell>
        <mxCell id="bUyuKT2G7bqXVr3a8qLy-17" value="&lt;font style=&quot;font-size: 18px;&quot;&gt;内部ループ&lt;/font&gt;" style="rounded=1;whiteSpace=wrap;html=1;absoluteArcSize=1;arcSize=14;strokeWidth=2;" parent="1" vertex="1">
          <mxGeometry x="80" y="130" width="200" height="80" as="geometry" />
        </mxCell>
        <mxCell id="bUyuKT2G7bqXVr3a8qLy-18" value="&lt;font style=&quot;font-size: 18px;&quot;&gt;歪み制御&lt;/font&gt;&lt;div&gt;&lt;font style=&quot;font-size: 12px;&quot;&gt;マスキング閾値を超えたスケールファクタバンドの量子化ステップ幅を減少&lt;/font&gt;&lt;/div&gt;" style="rounded=1;whiteSpace=wrap;html=1;absoluteArcSize=1;arcSize=14;strokeWidth=2;" parent="1" vertex="1">
          <mxGeometry x="80" y="460" width="200" height="80" as="geometry" />
        </mxCell>
        <mxCell id="bUyuKT2G7bqXVr3a8qLy-20" value="&lt;font style=&quot;font-size: 18px;&quot;&gt;歪み制御が十分？&lt;/font&gt;&lt;div&gt;&lt;font style=&quot;font-size: 12px;&quot;&gt;1. 量子化ノイズが閾値を超えたバンドがない&lt;/font&gt;&lt;/div&gt;&lt;div&gt;&lt;font style=&quot;font-size: 12px;&quot;&gt;2. スケールファクタの符号量が小さい&lt;/font&gt;&lt;/div&gt;" style="strokeWidth=2;html=1;shape=mxgraph.flowchart.decision;whiteSpace=wrap;" parent="1" vertex="1">
          <mxGeometry x="40" y="570" width="280" height="140" as="geometry" />
        </mxCell>
        <mxCell id="bUyuKT2G7bqXVr3a8qLy-21" value="" style="endArrow=classic;html=1;rounded=0;entryX=0.5;entryY=0;entryDx=0;entryDy=0;exitX=0.5;exitY=1;exitDx=0;exitDy=0;exitPerimeter=0;" parent="1" source="bUyuKT2G7bqXVr3a8qLy-16" target="bUyuKT2G7bqXVr3a8qLy-17" edge="1">
          <mxGeometry width="50" height="50" relative="1" as="geometry">
            <mxPoint x="510" y="220" as="sourcePoint" />
            <mxPoint x="510" y="250" as="targetPoint" />
          </mxGeometry>
        </mxCell>
        <mxCell id="bUyuKT2G7bqXVr3a8qLy-22" value="" style="endArrow=classic;html=1;rounded=0;" parent="1" target="CVru5InHoEOOZYgeoWNS-3" edge="1">
          <mxGeometry width="50" height="50" relative="1" as="geometry">
            <mxPoint x="180" y="210" as="sourcePoint" />
            <mxPoint x="190" y="140" as="targetPoint" />
          </mxGeometry>
        </mxCell>
        <mxCell id="bUyuKT2G7bqXVr3a8qLy-23" value="" style="endArrow=classic;html=1;rounded=0;entryX=0.5;entryY=0;entryDx=0;entryDy=0;entryPerimeter=0;exitX=0.5;exitY=1;exitDx=0;exitDy=0;" parent="1" source="bUyuKT2G7bqXVr3a8qLy-18" target="bUyuKT2G7bqXVr3a8qLy-20" edge="1">
          <mxGeometry width="50" height="50" relative="1" as="geometry">
            <mxPoint x="190" y="320" as="sourcePoint" />
            <mxPoint x="190" y="350" as="targetPoint" />
          </mxGeometry>
        </mxCell>
        <mxCell id="bUyuKT2G7bqXVr3a8qLy-24" value="" style="endArrow=classic;html=1;rounded=0;exitX=1;exitY=0.5;exitDx=0;exitDy=0;exitPerimeter=0;" parent="1" source="bUyuKT2G7bqXVr3a8qLy-20" edge="1">
          <mxGeometry width="50" height="50" relative="1" as="geometry">
            <mxPoint x="40" y="100" as="sourcePoint" />
            <mxPoint x="180" y="100" as="targetPoint" />
            <Array as="points">
              <mxPoint x="360" y="640" />
              <mxPoint x="360" y="340" />
              <mxPoint x="360" y="100" />
            </Array>
          </mxGeometry>
        </mxCell>
        <mxCell id="CVru5InHoEOOZYgeoWNS-10" value="&lt;font style=&quot;font-size: 14px;&quot;&gt;No&lt;/font&gt;" style="edgeLabel;html=1;align=center;verticalAlign=middle;resizable=0;points=[];" vertex="1" connectable="0" parent="bUyuKT2G7bqXVr3a8qLy-24">
          <mxGeometry x="-0.9664" y="-1" relative="1" as="geometry">
            <mxPoint x="2" y="-14" as="offset" />
          </mxGeometry>
        </mxCell>
        <mxCell id="bUyuKT2G7bqXVr3a8qLy-25" value="&lt;font style=&quot;font-size: 18px;&quot;&gt;終了&lt;/font&gt;" style="strokeWidth=2;html=1;shape=mxgraph.flowchart.terminator;whiteSpace=wrap;" parent="1" vertex="1">
          <mxGeometry x="80" y="750" width="200" height="60" as="geometry" />
        </mxCell>
        <mxCell id="bUyuKT2G7bqXVr3a8qLy-26" value="" style="endArrow=classic;html=1;rounded=0;entryX=0.5;entryY=0;entryDx=0;entryDy=0;entryPerimeter=0;exitX=0.5;exitY=1;exitDx=0;exitDy=0;exitPerimeter=0;" parent="1" source="bUyuKT2G7bqXVr3a8qLy-20" target="bUyuKT2G7bqXVr3a8qLy-25" edge="1">
          <mxGeometry width="50" height="50" relative="1" as="geometry">
            <mxPoint x="180" y="630" as="sourcePoint" />
            <mxPoint x="190" y="530" as="targetPoint" />
          </mxGeometry>
        </mxCell>
        <mxCell id="CVru5InHoEOOZYgeoWNS-9" value="&lt;font style=&quot;font-size: 14px;&quot;&gt;Yes&lt;/font&gt;" style="edgeLabel;html=1;align=center;verticalAlign=middle;resizable=0;points=[];" vertex="1" connectable="0" parent="bUyuKT2G7bqXVr3a8qLy-26">
          <mxGeometry x="-0.28" y="-2" relative="1" as="geometry">
            <mxPoint x="22" y="-8" as="offset" />
          </mxGeometry>
        </mxCell>
        <mxCell id="bUyuKT2G7bqXVr3a8qLy-27" value="&lt;font style=&quot;font-size: 18px;&quot;&gt;エンコードループ&lt;/font&gt;&lt;div&gt;&lt;font size=&quot;3&quot;&gt;(iteration_loop)&lt;/font&gt;&lt;/div&gt;" style="strokeWidth=2;html=1;shape=mxgraph.flowchart.terminator;whiteSpace=wrap;" parent="1" vertex="1">
          <mxGeometry x="-250" width="200" height="60" as="geometry" />
        </mxCell>
        <mxCell id="bUyuKT2G7bqXVr3a8qLy-38" value="" style="edgeStyle=orthogonalEdgeStyle;rounded=0;orthogonalLoop=1;jettySize=auto;html=1;" parent="1" source="bUyuKT2G7bqXVr3a8qLy-28" target="bUyuKT2G7bqXVr3a8qLy-30" edge="1">
          <mxGeometry relative="1" as="geometry" />
        </mxCell>
        <mxCell id="bUyuKT2G7bqXVr3a8qLy-28" value="&lt;font style=&quot;font-size: 18px;&quot;&gt;使用可能ビット数計算&lt;/font&gt;" style="rounded=1;whiteSpace=wrap;html=1;absoluteArcSize=1;arcSize=14;strokeWidth=2;" parent="1" vertex="1">
          <mxGeometry x="-250" y="130" width="200" height="80" as="geometry" />
        </mxCell>
        <mxCell id="bUyuKT2G7bqXVr3a8qLy-30" value="&lt;font style=&quot;font-size: 18px;&quot;&gt;スペクトルが全て0？&lt;/font&gt;" style="strokeWidth=2;html=1;shape=mxgraph.flowchart.decision;whiteSpace=wrap;" parent="1" vertex="1">
          <mxGeometry x="-270" y="240" width="240" height="100" as="geometry" />
        </mxCell>
        <mxCell id="bUyuKT2G7bqXVr3a8qLy-31" value="" style="endArrow=classic;html=1;rounded=0;entryX=0.5;entryY=0;entryDx=0;entryDy=0;exitX=0.5;exitY=1;exitDx=0;exitDy=0;exitPerimeter=0;" parent="1" source="bUyuKT2G7bqXVr3a8qLy-27" target="bUyuKT2G7bqXVr3a8qLy-28" edge="1">
          <mxGeometry width="50" height="50" relative="1" as="geometry">
            <mxPoint x="180" y="220" as="sourcePoint" />
            <mxPoint x="180" y="250" as="targetPoint" />
          </mxGeometry>
        </mxCell>
        <mxCell id="bUyuKT2G7bqXVr3a8qLy-32" value="" style="endArrow=classic;html=1;rounded=0;entryX=0.5;entryY=0;entryDx=0;entryDy=0;" parent="1" edge="1">
          <mxGeometry width="50" height="50" relative="1" as="geometry">
            <mxPoint x="-150" y="210" as="sourcePoint" />
            <mxPoint x="-150" y="240" as="targetPoint" />
          </mxGeometry>
        </mxCell>
        <mxCell id="bUyuKT2G7bqXVr3a8qLy-35" value="&lt;font style=&quot;font-size: 18px;&quot;&gt;終了&lt;/font&gt;" style="strokeWidth=2;html=1;shape=mxgraph.flowchart.terminator;whiteSpace=wrap;" parent="1" vertex="1">
          <mxGeometry x="-250" y="510" width="200" height="60" as="geometry" />
        </mxCell>
        <mxCell id="bUyuKT2G7bqXVr3a8qLy-37" value="&lt;font style=&quot;font-size: 18px;&quot;&gt;外部ループ&lt;/font&gt;" style="rounded=1;whiteSpace=wrap;html=1;absoluteArcSize=1;arcSize=14;strokeWidth=2;" parent="1" vertex="1">
          <mxGeometry x="-250" y="370" width="200" height="80" as="geometry" />
        </mxCell>
        <mxCell id="bUyuKT2G7bqXVr3a8qLy-39" value="" style="endArrow=classic;html=1;rounded=0;entryX=0.5;entryY=0;entryDx=0;entryDy=0;exitX=0.5;exitY=1;exitDx=0;exitDy=0;exitPerimeter=0;" parent="1" source="bUyuKT2G7bqXVr3a8qLy-30" target="bUyuKT2G7bqXVr3a8qLy-37" edge="1">
          <mxGeometry width="50" height="50" relative="1" as="geometry">
            <mxPoint x="-140" y="220" as="sourcePoint" />
            <mxPoint x="-140" y="250" as="targetPoint" />
          </mxGeometry>
        </mxCell>
        <mxCell id="CVru5InHoEOOZYgeoWNS-14" value="&lt;font style=&quot;font-size: 14px;&quot;&gt;No&lt;/font&gt;" style="edgeLabel;html=1;align=center;verticalAlign=middle;resizable=0;points=[];" vertex="1" connectable="0" parent="bUyuKT2G7bqXVr3a8qLy-39">
          <mxGeometry y="1" relative="1" as="geometry">
            <mxPoint x="19" y="-5" as="offset" />
          </mxGeometry>
        </mxCell>
        <mxCell id="bUyuKT2G7bqXVr3a8qLy-40" value="" style="endArrow=classic;html=1;rounded=0;entryX=0.5;entryY=0;entryDx=0;entryDy=0;entryPerimeter=0;exitX=0.5;exitY=1;exitDx=0;exitDy=0;" parent="1" source="bUyuKT2G7bqXVr3a8qLy-37" target="bUyuKT2G7bqXVr3a8qLy-35" edge="1">
          <mxGeometry width="50" height="50" relative="1" as="geometry">
            <mxPoint x="-150" y="460" as="sourcePoint" />
            <mxPoint x="-140" y="390" as="targetPoint" />
          </mxGeometry>
        </mxCell>
        <mxCell id="bUyuKT2G7bqXVr3a8qLy-42" value="" style="endArrow=classic;html=1;rounded=0;exitX=1;exitY=0.5;exitDx=0;exitDy=0;exitPerimeter=0;" parent="1" source="bUyuKT2G7bqXVr3a8qLy-30" edge="1">
          <mxGeometry width="50" height="50" relative="1" as="geometry">
            <mxPoint x="-140" y="450" as="sourcePoint" />
            <mxPoint x="-150" y="480" as="targetPoint" />
            <Array as="points">
              <mxPoint y="290" />
              <mxPoint y="390" />
              <mxPoint y="480" />
            </Array>
          </mxGeometry>
        </mxCell>
        <mxCell id="CVru5InHoEOOZYgeoWNS-15" value="&lt;font style=&quot;font-size: 14px;&quot;&gt;Yes&lt;/font&gt;" style="edgeLabel;html=1;align=center;verticalAlign=middle;resizable=0;points=[];" vertex="1" connectable="0" parent="bUyuKT2G7bqXVr3a8qLy-42">
          <mxGeometry x="-0.9063" y="-1" relative="1" as="geometry">
            <mxPoint x="-7" y="-21" as="offset" />
          </mxGeometry>
        </mxCell>
        <mxCell id="CVru5InHoEOOZYgeoWNS-4" style="edgeStyle=orthogonalEdgeStyle;rounded=0;orthogonalLoop=1;jettySize=auto;html=1;exitX=0.5;exitY=1;exitDx=0;exitDy=0;entryX=0.5;entryY=0;entryDx=0;entryDy=0;" edge="1" parent="1" source="CVru5InHoEOOZYgeoWNS-3" target="CVru5InHoEOOZYgeoWNS-5">
          <mxGeometry relative="1" as="geometry" />
        </mxCell>
        <mxCell id="CVru5InHoEOOZYgeoWNS-3" value="&lt;font style=&quot;font-size: 18px;&quot;&gt;量子化ノイズ計算&lt;/font&gt;" style="rounded=1;whiteSpace=wrap;html=1;absoluteArcSize=1;arcSize=14;strokeWidth=2;" vertex="1" parent="1">
          <mxGeometry x="80" y="240" width="200" height="80" as="geometry" />
        </mxCell>
        <mxCell id="CVru5InHoEOOZYgeoWNS-6" style="edgeStyle=orthogonalEdgeStyle;rounded=0;orthogonalLoop=1;jettySize=auto;html=1;exitX=0.5;exitY=1;exitDx=0;exitDy=0;entryX=0.5;entryY=0;entryDx=0;entryDy=0;" edge="1" parent="1" source="CVru5InHoEOOZYgeoWNS-5" target="bUyuKT2G7bqXVr3a8qLy-18">
          <mxGeometry relative="1" as="geometry" />
        </mxCell>
        <mxCell id="CVru5InHoEOOZYgeoWNS-5" value="&lt;font style=&quot;font-size: 18px;&quot;&gt;プリエンファシス&lt;/font&gt;&lt;div&gt;&lt;font style=&quot;font-size: 12px;&quot;&gt;高域バンドがマスキング閾値を超えていたら、高域バンドと閾値を増幅&lt;/font&gt;&lt;/div&gt;" style="rounded=1;whiteSpace=wrap;html=1;absoluteArcSize=1;arcSize=14;strokeWidth=2;" vertex="1" parent="1">
          <mxGeometry x="80" y="350" width="200" height="80" as="geometry" />
        </mxCell>
      </root>
    </mxGraphModel>
  </diagram>
</mxfile>
